<svg width="200" height="200" viewBox="0 0 200 200" xmlns="http://www.w3.org/2000/svg">
  <g fill="#d4af37">
    <path d="M50,0 C55,15 65,20 80,20 C65,20 55,25 50,40 C45,25 35,20 20,20 C35,20 45,15 50,0 Z" />
    <path d="M150,0 C155,15 165,20 180,20 C165,20 155,25 150,40 C145,25 135,20 120,20 C135,20 145,15 150,0 Z" />
    <path d="M50,100 C55,115 65,120 80,120 C65,120 55,125 50,140 C45,125 35,120 20,120 C35,120 45,115 50,100 Z" />
    <path d="M150,100 C155,115 165,120 180,120 C165,120 155,125 150,140 C145,125 135,120 120,120 C135,120 145,115 150,100 Z" />
  </g>
</svg>
